<svg xmlns="http://www.w3.org/2000/svg" xmlns:xlink="http://www.w3.org/1999/xlink" width="287" height="75" viewBox="0 0 287 75">
    <defs>
        <filter id="jfhs612dka" width="113.4%" height="171.4%" x="-6.7%" y="-35.7%" filterUnits="objectBoundingBox">
            <feOffset dy="2" in="SourceAlpha" result="shadowOffsetOuter1"/>
            <feGaussianBlur in="shadowOffsetOuter1" result="shadowBlurOuter1" stdDeviation="3.5"/>
            <feColorMatrix in="shadowBlurOuter1" result="shadowMatrixOuter1" values="0 0 0 0 0 0 0 0 0 0 0 0 0 0 0 0 0 0 0.138439685 0"/>
            <feMerge>
                <feMergeNode in="shadowMatrixOuter1"/>
                <feMergeNode in="SourceGraphic"/>
            </feMerge>
        </filter>
        <rect id="6a0exswbjb" width="261" height="49" x="0" y="0" rx="5"/>
    </defs>
    <g fill="none" fill-rule="evenodd">
        <g>
            <g>
                <g filter="url(#jfhs612dka)" transform="translate(-45 -370) translate(58 383)">
                    <use fill="#FEFFFD" xlink:href="#6a0exswbjb"/>
                </g>
                <g fill="#5A5A5A">
                    <path d="M8 3.5V0L3 5l5 5V5.5c3.314 0 6 2.686 6 6s-2.686 6-6 6-6-2.686-6-6H0c0 4.418 3.582 8 8 8s8-3.582 8-8-3.582-8-8-8" transform="translate(-45 -370) translate(58 383) rotate(150 123.101 49.127)"/>
                </g>
                <g fill="#5A5A5A">
                    <path d="M11 0v7h3l-6 7-6-7h3V0h6zM0 16H16V18H0z" transform="translate(-45 -370) translate(58 383) translate(125 16)"/>
                </g>
                <path stroke="#5A5A5A" stroke-width="2" d="M78 29.5L72.71 32.281 73.72 26.391 69.44 22.219 75.355 21.359 78 16 80.645 21.359 86.56 22.219 82.28 26.391 83.29 32.281z" transform="translate(-45 -370) translate(58 383)"/>
                <g transform="translate(-45 -370) translate(58 383) translate(177 14)">
                    <circle cx="10" cy="10" r="10" stroke="#5A5A5A" stroke-width="2"/>
                    <path fill="#5A5A5A" d="M9 10H11V16H9zM9 5H11V7H9z"/>
                </g>
                <path stroke="#5A5A5A" stroke-width="2" d="M22.5 16L30 24.5 22.5 32.5" transform="translate(-45 -370) translate(58 383)"/>
                <path stroke="#5A5A5A" stroke-linecap="square" stroke-width="2" d="M14 24.5L29 24.5" transform="translate(-45 -370) translate(58 383)"/>
            </g>
        </g>
    </g>
</svg>
